<svg preserveAspectRatio="none" xmlns="http://www.w3.org/2000/svg" width="1600" height="756"><g fill="none" fill-rule="evenodd"><path vector-effect="non-scaling-stroke" stroke="#C5C9E0" d="M-200-299C31.266 149.36 393.187 438 800 438s768.734-288.64 1000-737" opacity=".5"/><path vector-effect="non-scaling-stroke" stroke="#C5C9E0" d="M-49.85-299C146.576 81.832 453.973 327 799.5 327c345.526 0 652.923-245.168 849.349-626" opacity=".5"/><path vector-effect="non-scaling-stroke" stroke="#C5C9E0" stroke-dasharray="10" d="M27.227-299C205.712 47.155 485.032 270 799 270c313.967 0 593.287-222.845 771.772-569" opacity=".5"/><path vector-effect="non-scaling-stroke" stroke="#C5C9E0" d="M-200-184C31.266 196.224 393.187 441 800 441s768.734-244.776 1000-625" opacity=".5"/><path vector-effect="non-scaling-stroke" stroke="#C5C9E0" d="M-200-70C31.266 242.697 393.187 444 800 444s768.734-201.303 1000-514" opacity=".5"/><path vector-effect="non-scaling-stroke" stroke="#5468FF" d="M0 344c231.266 244.56 593.187 402 1000 402s768.734-157.44 1000-402" transform="translate(-200 -299)"/><path vector-effect="non-scaling-stroke" stroke="#C5C9E0" stroke-dasharray="10" d="M-200 159C31.266 336.033 393.187 450 800 450s768.734-113.967 1000-291" opacity=".5"/><path vector-effect="non-scaling-stroke" stroke="#C5C9E0" d="M-200 274C31.266 382.896 393.187 453 800 453s768.734-70.104 1000-179" opacity=".5"/><path vector-effect="non-scaling-stroke" stroke="#C5C9E0" d="M-200 388c231.266 41.368 593.187 68 1000 68s768.734-26.632 1000-68M-200 503c231.266-26.768 593.187-44 1000-44s768.734 17.232 1000 44" opacity=".5"/><path vector-effect="non-scaling-stroke" stroke="#C5C9E0" stroke-dasharray="10" d="M-200 731C31.266 568.569 393.187 464 800 464s768.734 104.569 1000 267" opacity=".5"/><path vector-effect="non-scaling-stroke" stroke="#C5C9E0" d="M-200 846C31.266 615.432 393.187 467 800 467s768.734 148.432 1000 379" opacity=".5"/><path vector-effect="non-scaling-stroke" stroke="#C5C9E0" d="M-200 960C31.266 661.904 393.187 470 800 470s768.734 191.904 1000 490" opacity=".5"/><path vector-effect="non-scaling-stroke" stroke="#C5C9E0" d="M-200 617C31.266 522.096 393.187 461 800 461s768.734 61.096 1000 156" opacity=".5"/></g></svg>
