<?xml version="1.0" encoding="iso-8859-1"?>
<!-- Uploaded to: SVG Repo, www.svgrepo.com, Generator: SVG Repo Mixer Tools -->
<svg version="1.1" id="Layer_1" xmlns="http://www.w3.org/2000/svg" xmlns:xlink="http://www.w3.org/1999/xlink" 
	 viewBox="0 0 512.001 512.001" xml:space="preserve">
<path style="fill:#57545C;" d="M323.344,19.72c15.727-6.488,32.318-12.088,50.497-12.088c61.467,0,111.296,49.829,111.296,111.296
	s-49.829,111.296-111.296,111.296c-1.591,0-3.174-0.042-4.749-0.108H131.469c-1.575,0.066-3.157,0.108-4.749,0.108
	c-61.467,0-111.296-49.829-111.296-111.296c0-30.366,12.162-57.893,31.88-77.974c0,0,22.155-19.261,34.345-23.818
	c14.117-5.278,29.028-9.504,45.071-9.504c61.467,0,111.296,49.829,111.296,111.296c0,20.33-5.455,39.386-14.976,55.787h54.481
	c-9.521-16.403-14.976-35.457-14.976-55.787c0-26.376,9.175-50.609,24.508-69.682C287.053,49.246,306.934,26.49,323.344,19.72z"/>
<g style="opacity:0.34;">
	<path style="fill:#2F2D30;" d="M373.876,7.632c-7.395,0-14.523,0.937-21.442,2.474c50.227,10.752,87.889,55.386,87.889,108.822
		c0,59.875-47.283,108.699-106.546,111.188h35.35c1.575,0.066,3.157,0.108,4.749,0.108c61.467,0,111.296-49.829,111.296-111.296
		S435.343,7.632,373.876,7.632z"/>
</g>
<rect x="160.68" y="230.116" style="fill:#57545C;" width="173.093" height="37.112"/>
<path style="fill:#C6C3CB;" d="M78.598,280.335v-4.988c0-5.929,4.759-10.76,10.688-10.85l117.668-1.766h208.904v134.96
	l-70.415,32.484H100.921c-12.328,0-22.324-9.994-22.324-22.324v-79.175C78.598,328.677,78.598,280.335,78.598,280.335z"/>
<path style="opacity:0.34;fill:#2F2D30;enable-background:new    ;" d="M391.631,262.731v110.731l-70.415,32.484H78.598v1.904
	c0,12.328,9.994,22.324,22.324,22.324h244.523l70.415-32.484V262.731H391.631z"/>
<path style="fill:#57545C;" d="M345.444,504.368H120.996v-34.001c0-22.198,17.995-40.193,40.193-40.193h184.256v74.194H345.444z"/>
<polygon style="fill:#494949;" points="327.037,430.175 327.037,485.962 120.996,485.962 120.996,504.368 345.444,504.368 
	345.444,430.175 "/>
<g>
	<path style="fill:#C6C3CB;" d="M209.647,463.824h-42.559c-4.216,0-7.632-3.417-7.632-7.632c0-4.215,3.416-7.632,7.632-7.632h42.559
		c4.216,0,7.632,3.417,7.632,7.632C217.279,460.407,213.863,463.824,209.647,463.824z"/>
	<path style="fill:#C6C3CB;" d="M209.647,485.665h-42.559c-4.216,0-7.632-3.417-7.632-7.632s3.416-7.632,7.632-7.632h42.559
		c4.216,0,7.632,3.417,7.632,7.632S213.863,485.665,209.647,485.665z"/>
	<circle style="fill:#C6C3CB;" cx="370.791" cy="118.93" r="37.008"/>
	<circle style="fill:#C6C3CB;" cx="123.662" cy="118.93" r="37.008"/>
	<polygon style="fill:#C6C3CB;" points="499.632,397.636 447.979,368.728 447.979,291.639 499.632,262.731 	"/>
</g>
<path style="fill:#57545C;" d="M431.919,393.139L431.919,393.139c-8.833,0-16.06-7.227-16.06-16.06v-93.79
	c0-8.833,7.227-16.06,16.06-16.06l0,0c8.833,0,16.06,7.227,16.06,16.06v93.79C447.979,385.912,440.752,393.139,431.919,393.139z"/>
<path style="opacity:0.34;fill:#2F2D30;enable-background:new    ;" d="M447.979,353.742c0,8.833-7.227,16.06-16.06,16.06
	c-8.833,0-16.06-7.227-16.06-16.06v23.337c0,8.833,7.228,16.06,16.06,16.06c8.833,0,16.06-7.227,16.06-16.06v-8.351l51.653,28.908
	v-23.337l-51.653-28.908V353.742z"/>
<g>
	<polygon style="fill:#3C66B1;" points="131.113,319.887 131.113,302.658 235.986,302.658 235.986,387.521 131.113,387.521 
		131.113,363.21 	"/>
	<circle style="fill:#3C66B1;" cx="274.207" cy="340.559" r="14.509"/>
	<circle style="fill:#3C66B1;" cx="323.201" cy="340.559" r="14.509"/>
	<circle style="fill:#3C66B1;" cx="372.196" cy="340.559" r="14.509"/>
</g>
<rect x="160.68" y="230.116" style="opacity:0.34;fill:#2F2D30;enable-background:new    ;" width="173.093" height="18.556"/>
<g style="opacity:0.34;">
	<path style="fill:#2F2D30;" d="M126.754,230.224c61.467,0,111.296-49.829,111.296-111.296S188.221,7.632,126.754,7.632
		c-7.395,0-14.523,0.937-21.442,2.474c50.227,10.752,87.889,55.386,87.889,108.822c0,53.795-38.171,98.661-88.904,109.026
		c3.966,0.789,9.837,1.731,16.794,2.162h0.914C123.58,230.182,125.162,230.224,126.754,230.224z"/>
</g>
<path d="M167.088,463.824h42.559c4.216,0,7.632-3.417,7.632-7.632c0-4.215-3.416-7.632-7.632-7.632h-42.559
	c-4.216,0-7.632,3.417-7.632,7.632C159.456,460.407,162.873,463.824,167.088,463.824z"/>
<path d="M370.789,163.572c24.616,0,44.644-20.027,44.644-44.644s-20.028-44.644-44.644-44.644s-44.644,20.027-44.644,44.644
	S346.172,163.572,370.789,163.572z M370.789,89.546c16.201,0,29.381,13.18,29.381,29.381s-13.18,29.381-29.381,29.381
	s-29.381-13.18-29.381-29.381S354.588,89.546,370.789,89.546z"/>
<path d="M79.023,118.928c0,24.617,20.028,44.644,44.644,44.644s44.644-20.027,44.644-44.644s-20.028-44.644-44.644-44.644
	S79.023,94.31,79.023,118.928z M153.049,118.928c0,16.201-13.18,29.381-29.381,29.381s-29.381-13.18-29.381-29.381
	s13.18-29.381,29.381-29.381S153.049,102.726,153.049,118.928z"/>
<path d="M503.491,256.148c-2.335-1.37-5.224-1.398-7.587-0.076l-40.716,22.787c-2.081-10.953-11.72-19.262-23.27-19.262
	c-3.026,0-5.918,0.576-8.581,1.615c-0.704-3.486-3.784-6.111-7.479-6.111h-74.451v-17.352h24.474
	c1.76,0.072,3.368,0.108,4.908,0.108c65.576,0,118.928-53.35,118.928-118.928S436.365,0,370.789,0
	c-18.997,0-37.154,4.347-53.965,12.922c-3.755,1.915-5.246,6.511-3.331,10.266c1.916,3.755,6.513,5.245,10.266,3.33
	c14.643-7.468,30.466-11.255,47.031-11.255c57.161,0,103.665,46.503,103.665,103.665S427.95,222.592,370.789,222.592
	c-1.371,0-2.82-0.033-4.427-0.101c-0.107-0.004-0.215-0.007-0.322-0.007h-32.264H160.68h-32.264c-0.107,0-0.215,0.002-0.322,0.007
	c-1.609,0.068-3.058,0.101-4.428,0.101c-57.161,0-103.665-46.503-103.665-103.665c0-27.334,10.546-53.127,29.695-72.627
	c2.953-3.008,2.908-7.839-0.099-10.792c-3.005-2.951-7.837-2.909-10.792,0.099C16.837,57.978,4.739,87.569,4.739,118.928
	c0,65.577,53.351,118.928,118.928,118.928c1.541,0,3.147-0.036,4.909-0.108h24.474v18.161l-74.566,1.119
	c-4.17,0.063-7.518,3.461-7.518,7.63v15.677c0,4.215,3.416,7.632,7.632,7.632s7.632-3.417,7.632-7.632v-8.16l120.784-1.813h126.764
	h74.451v12.926v93.79v15.728l-64.459,29.736h-182.58h-60.267c-8.102,0-14.692-6.591-14.692-14.691v-79.175
	c0-4.215-3.416-7.632-7.632-7.632s-7.632,3.417-7.632,7.632v79.175c0,16.517,13.438,29.954,29.955,29.954h25.284
	c-7.958,8.544-12.841,19.991-12.841,32.561v34.002c0,4.215,3.416,7.632,7.632,7.632h224.448c4.216,0,7.632-3.417,7.632-7.632
	v-69.312l65.98-30.438c2.251-1.038,3.811-3.092,4.276-5.467c2.664,1.04,5.559,1.618,8.587,1.618c11.55,0,21.189-8.309,23.27-19.262
	l40.716,22.787c1.159,0.648,2.443,0.972,3.727,0.972c1.335,0,2.669-0.35,3.859-1.048c2.337-1.37,3.772-3.876,3.772-6.583V262.731
	C507.263,260.023,505.829,257.517,503.491,256.148z M206.954,255.099h-38.642v-17.352h157.832v17.352L206.954,255.099
	L206.954,255.099z M337.813,496.737H128.628v-26.37c0-17.954,14.607-32.561,32.561-32.561h176.624V496.737z M440.347,377.079
	c0,4.647-3.781,8.428-8.428,8.428c-4.647,0-8.428-3.781-8.428-8.428v-93.79c0-4.647,3.781-8.428,8.428-8.428
	c4.647,0,8.428,3.781,8.428,8.428v8.351v77.089V377.079z M492,384.62l-36.39-20.367v-68.139L492,275.747V384.62z"/>
<path d="M131.113,355.578c-4.216,0-7.632,3.417-7.632,7.632v24.312c0,4.215,3.416,7.632,7.632,7.632h104.873
	c4.216,0,7.632-3.417,7.632-7.632v-84.863c0-4.215-3.416-7.632-7.632-7.632H131.113c-4.216,0-7.632,3.417-7.632,7.632v17.229
	c0,4.215,3.416,7.632,7.632,7.632c4.216,0,7.632-3.417,7.632-7.632v-9.597h89.61v69.599h-89.61v-16.68
	C138.744,358.995,135.327,355.578,131.113,355.578z"/>
<path d="M296.348,340.559c0-12.208-9.933-22.141-22.142-22.141c-12.208,0-22.141,9.932-22.141,22.141
	c0,12.208,9.932,22.141,22.141,22.141C286.415,362.7,296.348,352.768,296.348,340.559z M267.329,340.559
	c0-3.792,3.085-6.878,6.878-6.878c3.793,0,6.879,3.085,6.879,6.878c0,3.792-3.085,6.878-6.879,6.878
	C270.414,347.438,267.329,344.352,267.329,340.559z"/>
<path d="M345.342,340.559c0-12.208-9.933-22.141-22.142-22.141c-12.208,0-22.141,9.932-22.141,22.141
	c0,12.208,9.932,22.141,22.141,22.141C335.409,362.7,345.342,352.768,345.342,340.559z M316.323,340.559
	c0-3.792,3.085-6.878,6.878-6.878c3.793,0,6.879,3.085,6.879,6.878c0,3.792-3.085,6.878-6.879,6.878
	C319.409,347.438,316.323,344.352,316.323,340.559z"/>
<path d="M394.335,340.559c0-12.208-9.932-22.141-22.141-22.141c-12.208,0-22.142,9.932-22.142,22.141
	c0,12.208,9.933,22.141,22.142,22.141C384.403,362.7,394.335,352.768,394.335,340.559z M365.317,340.559
	c0-3.792,3.085-6.878,6.879-6.878c3.792,0,6.878,3.085,6.878,6.878c0,3.792-3.085,6.878-6.878,6.878
	C368.402,347.438,365.317,344.352,365.317,340.559z"/>
<path d="M81.69,24.112c13.241-5.871,27.365-8.848,41.976-8.848c57.161,0,103.666,46.503,103.666,103.665
	c0,18.273-4.822,36.24-13.944,51.956c-1.371,2.361-1.376,5.274-0.014,7.64c1.362,2.366,3.884,3.823,6.614,3.823h54.48
	c2.73,0,5.252-1.458,6.613-3.823c1.362-2.366,1.357-5.279-0.013-7.64c-9.122-15.717-13.944-33.684-13.944-51.956
	c0-23.884,7.893-46.325,22.825-64.899c2.641-3.286,2.118-8.088-1.166-10.729c-3.286-2.642-8.089-2.119-10.73,1.166
	c-16.89,21.01-26.191,47.455-26.191,74.463c0,16.642,3.489,33.065,10.167,48.156h-29.6c6.678-15.091,10.167-31.514,10.167-48.156
	C242.595,53.35,189.245,0,123.666,0c-16.756,0-32.961,3.418-48.164,10.159c-3.853,1.708-5.591,6.216-3.883,10.07
	C73.328,24.082,77.833,25.821,81.69,24.112z"/>
<path d="M209.647,470.402h-42.559c-4.216,0-7.632,3.417-7.632,7.632s3.416,7.632,7.632,7.632h42.559
	c4.216,0,7.632-3.417,7.632-7.632S213.863,470.402,209.647,470.402z"/>
</svg>