<?xml version="1.0" encoding="iso-8859-1"?>
<!-- Uploaded to: SVG Repo, www.svgrepo.com, Generator: SVG Repo Mixer Tools -->
<svg height="800px" width="800px" version="1.1" id="Layer_1" xmlns="http://www.w3.org/2000/svg" xmlns:xlink="http://www.w3.org/1999/xlink" 
	 viewBox="0 0 512 512" xml:space="preserve">
<path style="fill:#3C66B1;" d="M255.488,7.607c-37.804,0-83.369,14.336-83.369,14.336C75.94,56.203,7.092,148.063,7.092,256.003
	c0,137.186,111.21,248.396,248.396,248.396s248.396-111.21,248.396-248.396S392.673,7.607,255.488,7.607z M255.488,456.227
	c-110.58,0-200.222-89.643-200.222-200.222S144.908,55.781,255.488,55.781S455.71,145.423,455.71,256.003
	S366.068,456.227,255.488,456.227z"/>
<circle style="fill:#52A2E7;" cx="255.493" cy="256" r="215.385"/>
<g>
	<path style="opacity:0.22;fill:#3C66B1;enable-background:new    ;" d="M399.542,53.626c28.972,40.629,46.018,90.35,46.018,144.055
		c0,137.186-111.21,248.396-248.396,248.396c-53.704,0-103.426-17.046-144.056-46.018C98.146,463.215,172.006,504.4,255.487,504.4
		c137.186,0,248.396-111.21,248.396-248.396C503.884,172.523,462.7,98.663,399.542,53.626z"/>
	<polygon style="fill:#3C66B1;" points="214.449,180.525 214.449,144.525 368.332,250.198 214.449,355.87 214.449,247.269 	"/>
</g>
<path d="M210.908,362.599c1.112,0.586,2.328,0.875,3.541,0.875c1.51,0,3.014-0.449,4.305-1.335l153.882-105.674
	c2.065-1.418,3.299-3.762,3.299-6.269c0-2.506-1.234-4.85-3.299-6.269L218.754,138.256c-2.328-1.599-5.349-1.776-7.846-0.46
	c-2.498,1.315-4.063,3.905-4.063,6.729v36c0,4.199,3.405,7.604,7.604,7.604c4.199,0,7.604-3.405,7.604-7.604V158.97l132.845,91.226
	l-132.845,91.227v-94.156c0-4.199-3.405-7.604-7.604-7.604c-4.199,0-7.604,3.405-7.604,7.604V355.87
	C206.846,358.694,208.409,361.284,210.908,362.599z"/>
<path d="M98.657,413.343c42.028,42.028,97.907,65.173,157.343,65.173s115.316-23.145,157.343-65.173S478.516,315.437,478.516,256
	s-23.145-115.316-65.173-157.343C371.316,56.628,315.437,33.483,256,33.483S140.684,56.628,98.657,98.657
	C56.628,140.684,33.483,196.563,33.483,256S56.628,371.316,98.657,413.343z M256,48.691c114.311,0,207.308,92.998,207.308,207.309
	S370.311,463.308,256,463.308S48.691,370.311,48.691,256S141.689,48.691,256,48.691z"/>
<path d="M437.019,74.981C388.668,26.629,324.38,0,256,0c-42.212,0-84.054,10.493-121.002,30.347
	c-3.7,1.987-5.088,6.597-3.099,10.297c1.986,3.699,6.596,5.088,10.297,3.099C176.939,25.075,216.291,15.208,256,15.208
	c132.773,0,240.792,108.019,240.792,240.792S388.773,496.792,256,496.792S15.208,388.773,15.208,256
	c0-65.931,26.131-127.465,73.58-173.266c3.021-2.916,3.106-7.731,0.19-10.752c-2.917-3.02-7.731-3.107-10.752-0.19
	c-24.475,23.625-43.719,51.36-57.196,82.436C7.076,186.403,0,220.645,0,256c0,68.38,26.629,132.668,74.981,181.019
	S187.62,512,256,512s132.668-26.629,181.019-74.981S512,324.38,512,256S485.371,123.332,437.019,74.981z"/>
</svg>